<?xml version="1.0" standalone="no"?>
<!DOCTYPE svg PUBLIC "-//W3C//DTD SVG 20010904//EN"
 "http://www.w3.org/TR/2001/REC-SVG-20010904/DTD/svg10.dtd">
<svg version="1.0" xmlns="http://www.w3.org/2000/svg"
 width="1200.000000pt" height="1200.000000pt" viewBox="0 0 1200.000000 1200.000000"
 preserveAspectRatio="xMidYMid meet">
<metadata>
Created by potrace 1.14, written by Peter Selinger 2001-2017
</metadata>
<g transform="translate(0.000000,1200.000000) scale(0.100000,-0.100000)"
fill="#000000" stroke="none">
<path d="M5719 11496 c-2 -2 -47 -6 -99 -10 -52 -3 -117 -8 -145 -11 -129 -13
-164 -17 -220 -25 -33 -5 -78 -12 -100 -15 -23 -3 -52 -7 -65 -10 -13 -3 -42
-7 -64 -11 -22 -3 -43 -7 -46 -9 -3 -2 -26 -6 -50 -10 -25 -3 -70 -12 -100
-20 -30 -8 -66 -16 -80 -19 -192 -35 -651 -184 -900 -293 -25 -11 -65 -28 -90
-39 -60 -25 -357 -174 -445 -222 -300 -166 -704 -453 -964 -687 -18 -16 -45
-41 -60 -54 -103 -93 -323 -317 -433 -442 -71 -81 -254 -308 -288 -358 -8 -13
-31 -44 -50 -71 -207 -286 -414 -651 -555 -975 -26 -60 -53 -123 -60 -140 -47
-107 -182 -505 -209 -615 -4 -14 -20 -77 -36 -140 -16 -63 -36 -151 -45 -195
-18 -85 -20 -99 -35 -185 -16 -94 -19 -114 -25 -159 -3 -23 -7 -55 -9 -70 -3
-14 -8 -55 -12 -91 -3 -36 -8 -78 -10 -95 -19 -182 -26 -692 -11 -895 12 -176
16 -222 26 -295 6 -38 12 -88 15 -110 89 -688 361 -1451 738 -2070 90 -148
231 -356 315 -465 64 -84 201 -251 257 -315 39 -44 76 -85 81 -91 6 -7 57 -61
116 -120 197 -204 424 -404 634 -560 55 -40 105 -77 110 -82 41 -32 276 -185
395 -256 171 -102 468 -253 630 -320 63 -27 129 -54 145 -61 154 -67 575 -199
763 -240 199 -44 338 -70 417 -81 22 -2 51 -7 65 -9 27 -4 165 -21 245 -30
203 -21 721 -28 920 -12 55 5 107 8 115 9 16 0 300 35 360 43 19 3 82 14 140
25 58 11 119 23 135 26 141 26 535 133 635 171 8 4 17 7 20 8 158 40 686 274
888 392 40 24 74 43 77 43 2 0 40 23 85 50 45 28 84 50 86 50 3 0 10 5 17 10
7 6 62 43 122 83 61 39 119 80 129 89 11 10 23 18 27 18 4 0 14 6 22 14 8 8
32 27 54 43 55 38 157 115 163 122 3 3 27 24 55 46 27 22 57 47 65 55 9 8 45
40 81 70 80 68 428 417 489 490 25 29 50 58 56 64 5 6 50 61 98 121 48 61 93
117 100 126 20 25 179 250 209 297 118 183 164 260 244 412 25 47 51 94 58
105 24 40 164 352 205 460 24 61 49 124 55 140 23 55 128 385 141 440 1 6 13
55 27 110 46 178 93 425 112 580 4 28 8 57 10 65 2 8 7 49 11 90 3 41 9 89 12
105 3 17 7 1202 8 2635 2 2287 1 2614 -13 2675 -68 318 -309 581 -614 669 -31
9 -67 20 -80 24 -24 7 -5062 15 -5070 8z"/>
</g>
</svg>
